<svg xmlns="http://www.w3.org/2000/svg" viewBox="0 0 1200 675" font-family="ui-sans-serif, system-ui, -apple-system, sans-serif">
<defs><linearGradient id="bg" x1="0" y1="0" x2="0" y2="1"><stop offset="0" stop-color="#0f172a"/><stop offset="1" stop-color="#1e293b"/></linearGradient>
  <linearGradient id="wood" x1="0" y1="0" x2="0" y2="1"><stop offset="0" stop-color="#4a3320"/><stop offset="1" stop-color="#33230f"/></linearGradient></defs>
<rect x="0" y="0" width="1200" height="675" fill="url(#bg)"/>
<g opacity="0.06" stroke="#e2e8f0" stroke-width="1.5"><line x1="600.0" y1="793.5" x2="48.0" y2="337.5"/><line x1="600.0" y1="793.5" x2="1152.0" y2="337.5"/><line x1="646.0" y1="755.5" x2="94.0" y2="299.5"/><line x1="554.0" y1="755.5" x2="1106.0" y2="299.5"/><line x1="692.0" y1="717.5" x2="140.0" y2="261.5"/><line x1="508.0" y1="717.5" x2="1060.0" y2="261.5"/><line x1="738.0" y1="679.5" x2="186.0" y2="223.5"/><line x1="462.0" y1="679.5" x2="1014.0" y2="223.5"/><line x1="784.0" y1="641.5" x2="232.0" y2="185.5"/><line x1="416.0" y1="641.5" x2="968.0" y2="185.5"/><line x1="830.0" y1="603.5" x2="278.0" y2="147.5"/><line x1="370.0" y1="603.5" x2="922.0" y2="147.5"/><line x1="876.0" y1="565.5" x2="324.0" y2="109.5"/><line x1="324.0" y1="565.5" x2="876.0" y2="109.5"/><line x1="922.0" y1="527.5" x2="370.0" y2="71.5"/><line x1="278.0" y1="527.5" x2="830.0" y2="71.5"/><line x1="968.0" y1="489.5" x2="416.0" y2="33.5"/><line x1="232.0" y1="489.5" x2="784.0" y2="33.5"/><line x1="1014.0" y1="451.5" x2="462.0" y2="-4.5"/><line x1="186.0" y1="451.5" x2="738.0" y2="-4.5"/><line x1="1060.0" y1="413.5" x2="508.0" y2="-42.5"/><line x1="140.0" y1="413.5" x2="692.0" y2="-42.5"/><line x1="1106.0" y1="375.5" x2="554.0" y2="-80.5"/><line x1="94.0" y1="375.5" x2="646.0" y2="-80.5"/><line x1="1152.0" y1="337.5" x2="600.0" y2="-118.5"/><line x1="48.0" y1="337.5" x2="600.0" y2="-118.5"/></g>
<rect x="90" y="181.95" width="1060" height="311.1" rx="10" fill="url(#wood)"/>
<line x1="90.0" y1="174.3" x2="90.0" y2="500.7" stroke="#e8dcc8" stroke-width="4" opacity="1"/>
<line x1="172.7" y1="174.3" x2="172.7" y2="500.7" stroke="#b8b8b8" stroke-width="1.6" opacity="0.85"/>
<line x1="250.8" y1="174.3" x2="250.8" y2="500.7" stroke="#b8b8b8" stroke-width="1.6" opacity="0.85"/>
<line x1="324.4" y1="174.3" x2="324.4" y2="500.7" stroke="#b8b8b8" stroke-width="1.6" opacity="0.85"/>
<circle cx="287.6" cy="337.5" r="6" fill="#f5f5dc" opacity="0.9"/>
<line x1="394.0" y1="174.3" x2="394.0" y2="500.7" stroke="#b8b8b8" stroke-width="1.6" opacity="0.85"/>
<line x1="459.6" y1="174.3" x2="459.6" y2="500.7" stroke="#b8b8b8" stroke-width="1.6" opacity="0.85"/>
<circle cx="426.8" cy="337.5" r="6" fill="#f5f5dc" opacity="0.9"/>
<line x1="521.6" y1="174.3" x2="521.6" y2="500.7" stroke="#b8b8b8" stroke-width="1.6" opacity="0.85"/>
<line x1="580.1" y1="174.3" x2="580.1" y2="500.7" stroke="#b8b8b8" stroke-width="1.6" opacity="0.85"/>
<circle cx="550.8" cy="337.5" r="6" fill="#f5f5dc" opacity="0.9"/>
<line x1="635.2" y1="174.3" x2="635.2" y2="500.7" stroke="#b8b8b8" stroke-width="1.6" opacity="0.85"/>
<line x1="687.3" y1="174.3" x2="687.3" y2="500.7" stroke="#b8b8b8" stroke-width="1.6" opacity="0.85"/>
<circle cx="661.3" cy="337.5" r="6" fill="#f5f5dc" opacity="0.9"/>
<line x1="736.5" y1="174.3" x2="736.5" y2="500.7" stroke="#b8b8b8" stroke-width="1.6" opacity="0.85"/>
<line x1="782.9" y1="174.3" x2="782.9" y2="500.7" stroke="#b8b8b8" stroke-width="1.6" opacity="0.85"/>
<line x1="826.7" y1="174.3" x2="826.7" y2="500.7" stroke="#b8b8b8" stroke-width="1.6" opacity="0.85"/>
<circle cx="804.8" cy="286.5" r="6" fill="#f5f5dc" opacity="0.9"/>
<circle cx="804.8" cy="388.5" r="6" fill="#f5f5dc" opacity="0.9"/>
<line x1="868.1" y1="174.3" x2="868.1" y2="500.7" stroke="#b8b8b8" stroke-width="1.6" opacity="0.85"/>
<line x1="907.1" y1="174.3" x2="907.1" y2="500.7" stroke="#b8b8b8" stroke-width="1.6" opacity="0.85"/>
<line x1="944.0" y1="174.3" x2="944.0" y2="500.7" stroke="#b8b8b8" stroke-width="1.6" opacity="0.85"/>
<circle cx="925.5" cy="337.5" r="6" fill="#f5f5dc" opacity="0.9"/>
<line x1="978.7" y1="174.3" x2="978.7" y2="500.7" stroke="#b8b8b8" stroke-width="1.6" opacity="0.85"/>
<line x1="1011.5" y1="174.3" x2="1011.5" y2="500.7" stroke="#b8b8b8" stroke-width="1.6" opacity="0.85"/>
<circle cx="995.1" cy="337.5" r="6" fill="#f5f5dc" opacity="0.9"/>
<line x1="1042.5" y1="174.3" x2="1042.5" y2="500.7" stroke="#b8b8b8" stroke-width="1.6" opacity="0.85"/>
<line x1="1071.8" y1="174.3" x2="1071.8" y2="500.7" stroke="#b8b8b8" stroke-width="1.6" opacity="0.85"/>
<circle cx="1057.1" cy="337.5" r="6" fill="#f5f5dc" opacity="0.9"/>
<line x1="1099.4" y1="174.3" x2="1099.4" y2="500.7" stroke="#b8b8b8" stroke-width="1.6" opacity="0.85"/>
<line x1="1125.4" y1="174.3" x2="1125.4" y2="500.7" stroke="#b8b8b8" stroke-width="1.6" opacity="0.85"/>
<circle cx="1112.4" cy="337.5" r="6" fill="#f5f5dc" opacity="0.9"/>
<line x1="1150.0" y1="174.3" x2="1150.0" y2="500.7" stroke="#b8b8b8" stroke-width="1.6" opacity="0.85"/>
<line x1="60" y1="465.0" x2="1150" y2="465.0" stroke="#cd7f32" stroke-width="2.60"/>
<line x1="60" y1="414.0" x2="1150" y2="414.0" stroke="#cd7f32" stroke-width="2.30"/>
<line x1="60" y1="363.0" x2="1150" y2="363.0" stroke="#cd7f32" stroke-width="2.00"/>
<line x1="60" y1="312.0" x2="1150" y2="312.0" stroke="#cd7f32" stroke-width="1.70"/>
<line x1="60" y1="261.0" x2="1150" y2="261.0" stroke="#c0c0c0" stroke-width="1.40"/>
<line x1="60" y1="210.0" x2="1150" y2="210.0" stroke="#c0c0c0" stroke-width="1.10"/>
<line x1="131.4" y1="465.0" x2="287.6" y2="363.0" stroke="#fb7185" stroke-width="3" stroke-linecap="round" opacity="0.95"/>
<line x1="847.4" y1="465.0" x2="925.5" y2="363.0" stroke="#fb7185" stroke-width="3" stroke-linecap="round" opacity="0.95"/>
<line x1="847.4" y1="465.0" x2="711.9" y2="312.0" stroke="#fb7185" stroke-width="3" stroke-linecap="round" opacity="0.95" stroke-dasharray="10 7"/>
<line x1="607.6" y1="414.0" x2="711.9" y2="312.0" stroke="#fb7185" stroke-width="3" stroke-linecap="round" opacity="0.95"/>
<line x1="607.6" y1="414.0" x2="490.6" y2="261.0" stroke="#fb7185" stroke-width="3" stroke-linecap="round" opacity="0.95"/>
<line x1="1085.6" y1="414.0" x2="1137.7" y2="312.0" stroke="#fb7185" stroke-width="3" stroke-linecap="round" opacity="0.95"/>
<line x1="1085.6" y1="414.0" x2="1027.0" y2="261.0" stroke="#fb7185" stroke-width="3" stroke-linecap="round" opacity="0.95"/>
<line x1="287.6" y1="363.0" x2="490.6" y2="261.0" stroke="#fb7185" stroke-width="3" stroke-linecap="round" opacity="0.95" stroke-dasharray="10 7"/>
<line x1="287.6" y1="363.0" x2="131.4" y2="210.0" stroke="#fb7185" stroke-width="3" stroke-linecap="round" opacity="0.95"/>
<line x1="925.5" y1="363.0" x2="1027.0" y2="261.0" stroke="#fb7185" stroke-width="3" stroke-linecap="round" opacity="0.95" stroke-dasharray="10 7"/>
<line x1="925.5" y1="363.0" x2="847.4" y2="210.0" stroke="#fb7185" stroke-width="3" stroke-linecap="round" opacity="0.95"/>
<line x1="711.9" y1="312.0" x2="847.4" y2="210.0" stroke="#fb7185" stroke-width="3" stroke-linecap="round" opacity="0.95" stroke-dasharray="10 7"/>
<circle cx="131.4" cy="465.0" r="16.0" fill="#9f1239"/><text x="131.4" y="470.6" fill="#fff" font-size="15.2" font-weight="700" text-anchor="middle">F</text>
<circle cx="847.4" cy="465.0" r="16.0" fill="#be123c"/><text x="847.4" y="470.6" fill="#fff" font-size="15.2" font-weight="700" text-anchor="middle">F</text>
<circle cx="607.6" cy="414.0" r="16.0" fill="#be123c"/><text x="607.6" y="419.6" fill="#fff" font-size="15.2" font-weight="700" text-anchor="middle">F</text>
<circle cx="1085.6" cy="414.0" r="16.0" fill="#f43f5e"/><text x="1085.6" y="419.6" fill="#fff" font-size="15.2" font-weight="700" text-anchor="middle">F</text>
<circle cx="287.6" cy="363.0" r="16.0" fill="#be123c"/><text x="287.6" y="368.6" fill="#fff" font-size="15.2" font-weight="700" text-anchor="middle">F</text>
<circle cx="925.5" cy="363.0" r="16.0" fill="#f43f5e"/><text x="925.5" y="368.6" fill="#fff" font-size="15.2" font-weight="700" text-anchor="middle">F</text>
<circle cx="711.9" cy="312.0" r="16.0" fill="#f43f5e"/><text x="711.9" y="317.6" fill="#fff" font-size="15.2" font-weight="700" text-anchor="middle">F</text>
<circle cx="1137.7" cy="312.0" r="16.0" fill="#fb7185"/><text x="1137.7" y="317.6" fill="#fff" font-size="15.2" font-weight="700" text-anchor="middle">F</text>
<circle cx="490.6" cy="261.0" r="16.0" fill="#f43f5e"/><text x="490.6" y="266.6" fill="#fff" font-size="15.2" font-weight="700" text-anchor="middle">F</text>
<circle cx="1027.0" cy="261.0" r="16.0" fill="#fb7185"/><text x="1027.0" y="266.6" fill="#fff" font-size="15.2" font-weight="700" text-anchor="middle">F</text>
<circle cx="131.4" cy="210.0" r="16.0" fill="#f43f5e"/><text x="131.4" y="215.6" fill="#fff" font-size="15.2" font-weight="700" text-anchor="middle">F</text>
<circle cx="847.4" cy="210.0" r="16.0" fill="#fb7185"/><text x="847.4" y="215.6" fill="#fff" font-size="15.2" font-weight="700" text-anchor="middle">F</text>
</svg>