<svg xmlns="http://www.w3.org/2000/svg" viewBox="0 0 1400 360" font-family="ui-sans-serif, system-ui, -apple-system, sans-serif">
<defs><linearGradient id="bg" x1="0" y1="0" x2="0" y2="1"><stop offset="0" stop-color="#0f172a"/><stop offset="1" stop-color="#1e293b"/></linearGradient>
  <linearGradient id="wood" x1="0" y1="0" x2="0" y2="1"><stop offset="0" stop-color="#4a3320"/><stop offset="1" stop-color="#33230f"/></linearGradient></defs>
<rect x="0" y="0" width="1400" height="360" fill="url(#bg)"/>
<rect x="90" y="45.8" width="1270" height="268.4" rx="10" fill="url(#wood)"/>
<line x1="90.0" y1="39.2" x2="90.0" y2="320.8" stroke="#e8dcc8" stroke-width="4" opacity="1"/>
<line x1="189.1" y1="39.2" x2="189.1" y2="320.8" stroke="#b8b8b8" stroke-width="1.6" opacity="0.85"/>
<line x1="282.6" y1="39.2" x2="282.6" y2="320.8" stroke="#b8b8b8" stroke-width="1.6" opacity="0.85"/>
<line x1="370.9" y1="39.2" x2="370.9" y2="320.8" stroke="#b8b8b8" stroke-width="1.6" opacity="0.85"/>
<circle cx="326.7" cy="180.0" r="6" fill="#f5f5dc" opacity="0.9"/>
<line x1="454.2" y1="39.2" x2="454.2" y2="320.8" stroke="#b8b8b8" stroke-width="1.6" opacity="0.85"/>
<line x1="532.8" y1="39.2" x2="532.8" y2="320.8" stroke="#b8b8b8" stroke-width="1.6" opacity="0.85"/>
<circle cx="493.5" cy="180.0" r="6" fill="#f5f5dc" opacity="0.9"/>
<line x1="607.1" y1="39.2" x2="607.1" y2="320.8" stroke="#b8b8b8" stroke-width="1.6" opacity="0.85"/>
<line x1="677.1" y1="39.2" x2="677.1" y2="320.8" stroke="#b8b8b8" stroke-width="1.6" opacity="0.85"/>
<circle cx="642.1" cy="180.0" r="6" fill="#f5f5dc" opacity="0.9"/>
<line x1="743.3" y1="39.2" x2="743.3" y2="320.8" stroke="#b8b8b8" stroke-width="1.6" opacity="0.85"/>
<line x1="805.7" y1="39.2" x2="805.7" y2="320.8" stroke="#b8b8b8" stroke-width="1.6" opacity="0.85"/>
<circle cx="774.5" cy="180.0" r="6" fill="#f5f5dc" opacity="0.9"/>
<line x1="864.6" y1="39.2" x2="864.6" y2="320.8" stroke="#b8b8b8" stroke-width="1.6" opacity="0.85"/>
<line x1="920.2" y1="39.2" x2="920.2" y2="320.8" stroke="#b8b8b8" stroke-width="1.6" opacity="0.85"/>
<line x1="972.7" y1="39.2" x2="972.7" y2="320.8" stroke="#b8b8b8" stroke-width="1.6" opacity="0.85"/>
<circle cx="946.5" cy="136.0" r="6" fill="#f5f5dc" opacity="0.9"/>
<circle cx="946.5" cy="224.0" r="6" fill="#f5f5dc" opacity="0.9"/>
<line x1="1022.2" y1="39.2" x2="1022.2" y2="320.8" stroke="#b8b8b8" stroke-width="1.6" opacity="0.85"/>
<line x1="1069.0" y1="39.2" x2="1069.0" y2="320.8" stroke="#b8b8b8" stroke-width="1.6" opacity="0.85"/>
<line x1="1113.1" y1="39.2" x2="1113.1" y2="320.8" stroke="#b8b8b8" stroke-width="1.6" opacity="0.85"/>
<circle cx="1091.1" cy="180.0" r="6" fill="#f5f5dc" opacity="0.9"/>
<line x1="1154.8" y1="39.2" x2="1154.8" y2="320.8" stroke="#b8b8b8" stroke-width="1.6" opacity="0.85"/>
<line x1="1194.1" y1="39.2" x2="1194.1" y2="320.8" stroke="#b8b8b8" stroke-width="1.6" opacity="0.85"/>
<circle cx="1174.5" cy="180.0" r="6" fill="#f5f5dc" opacity="0.9"/>
<line x1="1231.2" y1="39.2" x2="1231.2" y2="320.8" stroke="#b8b8b8" stroke-width="1.6" opacity="0.85"/>
<line x1="1266.3" y1="39.2" x2="1266.3" y2="320.8" stroke="#b8b8b8" stroke-width="1.6" opacity="0.85"/>
<circle cx="1248.8" cy="180.0" r="6" fill="#f5f5dc" opacity="0.9"/>
<line x1="1299.3" y1="39.2" x2="1299.3" y2="320.8" stroke="#b8b8b8" stroke-width="1.6" opacity="0.85"/>
<line x1="1330.5" y1="39.2" x2="1330.5" y2="320.8" stroke="#b8b8b8" stroke-width="1.6" opacity="0.85"/>
<circle cx="1314.9" cy="180.0" r="6" fill="#f5f5dc" opacity="0.9"/>
<line x1="1360.0" y1="39.2" x2="1360.0" y2="320.8" stroke="#b8b8b8" stroke-width="1.6" opacity="0.85"/>
<line x1="60" y1="290.0" x2="1360" y2="290.0" stroke="#cd7f32" stroke-width="2.60"/>
<line x1="60" y1="246.0" x2="1360" y2="246.0" stroke="#cd7f32" stroke-width="2.30"/>
<line x1="60" y1="202.0" x2="1360" y2="202.0" stroke="#cd7f32" stroke-width="2.00"/>
<line x1="60" y1="158.0" x2="1360" y2="158.0" stroke="#cd7f32" stroke-width="1.70"/>
<line x1="60" y1="114.0" x2="1360" y2="114.0" stroke="#c0c0c0" stroke-width="1.40"/>
<line x1="60" y1="70.0" x2="1360" y2="70.0" stroke="#c0c0c0" stroke-width="1.10"/>
<line x1="139.5" y1="290.0" x2="326.7" y2="202.0" stroke="#fb7185" stroke-width="3" stroke-linecap="round" opacity="0.95"/>
<line x1="997.5" y1="290.0" x2="1091.1" y2="202.0" stroke="#fb7185" stroke-width="3" stroke-linecap="round" opacity="0.95"/>
<line x1="997.5" y1="290.0" x2="835.1" y2="158.0" stroke="#fb7185" stroke-width="3" stroke-linecap="round" opacity="0.95" stroke-dasharray="10 7"/>
<line x1="710.2" y1="246.0" x2="835.1" y2="158.0" stroke="#fb7185" stroke-width="3" stroke-linecap="round" opacity="0.95"/>
<line x1="710.2" y1="246.0" x2="570.0" y2="114.0" stroke="#fb7185" stroke-width="3" stroke-linecap="round" opacity="0.95"/>
<line x1="1282.8" y1="246.0" x2="1345.3" y2="158.0" stroke="#fb7185" stroke-width="3" stroke-linecap="round" opacity="0.95"/>
<line x1="1282.8" y1="246.0" x2="1212.7" y2="114.0" stroke="#fb7185" stroke-width="3" stroke-linecap="round" opacity="0.95"/>
<line x1="326.7" y1="202.0" x2="570.0" y2="114.0" stroke="#fb7185" stroke-width="3" stroke-linecap="round" opacity="0.95" stroke-dasharray="10 7"/>
<line x1="326.7" y1="202.0" x2="139.5" y2="70.0" stroke="#fb7185" stroke-width="3" stroke-linecap="round" opacity="0.95"/>
<line x1="1091.1" y1="202.0" x2="1212.7" y2="114.0" stroke="#fb7185" stroke-width="3" stroke-linecap="round" opacity="0.95" stroke-dasharray="10 7"/>
<line x1="1091.1" y1="202.0" x2="997.5" y2="70.0" stroke="#fb7185" stroke-width="3" stroke-linecap="round" opacity="0.95"/>
<line x1="835.1" y1="158.0" x2="997.5" y2="70.0" stroke="#fb7185" stroke-width="3" stroke-linecap="round" opacity="0.95" stroke-dasharray="10 7"/>
<circle cx="139.5" cy="290.0" r="16.0" fill="#9f1239"/><text x="139.5" y="295.6" fill="#fff" font-size="15.2" font-weight="700" text-anchor="middle">F</text>
<circle cx="997.5" cy="290.0" r="16.0" fill="#be123c"/><text x="997.5" y="295.6" fill="#fff" font-size="15.2" font-weight="700" text-anchor="middle">F</text>
<circle cx="710.2" cy="246.0" r="16.0" fill="#be123c"/><text x="710.2" y="251.6" fill="#fff" font-size="15.2" font-weight="700" text-anchor="middle">F</text>
<circle cx="1282.8" cy="246.0" r="16.0" fill="#f43f5e"/><text x="1282.8" y="251.6" fill="#fff" font-size="15.2" font-weight="700" text-anchor="middle">F</text>
<circle cx="326.7" cy="202.0" r="16.0" fill="#be123c"/><text x="326.7" y="207.6" fill="#fff" font-size="15.2" font-weight="700" text-anchor="middle">F</text>
<circle cx="1091.1" cy="202.0" r="16.0" fill="#f43f5e"/><text x="1091.1" y="207.6" fill="#fff" font-size="15.2" font-weight="700" text-anchor="middle">F</text>
<circle cx="835.1" cy="158.0" r="16.0" fill="#f43f5e"/><text x="835.1" y="163.6" fill="#fff" font-size="15.2" font-weight="700" text-anchor="middle">F</text>
<circle cx="1345.3" cy="158.0" r="16.0" fill="#fb7185"/><text x="1345.3" y="163.6" fill="#fff" font-size="15.2" font-weight="700" text-anchor="middle">F</text>
<circle cx="570.0" cy="114.0" r="16.0" fill="#f43f5e"/><text x="570.0" y="119.6" fill="#fff" font-size="15.2" font-weight="700" text-anchor="middle">F</text>
<circle cx="1212.7" cy="114.0" r="16.0" fill="#fb7185"/><text x="1212.7" y="119.6" fill="#fff" font-size="15.2" font-weight="700" text-anchor="middle">F</text>
<circle cx="139.5" cy="70.0" r="16.0" fill="#f43f5e"/><text x="139.5" y="75.6" fill="#fff" font-size="15.2" font-weight="700" text-anchor="middle">F</text>
<circle cx="997.5" cy="70.0" r="16.0" fill="#fb7185"/><text x="997.5" y="75.6" fill="#fff" font-size="15.2" font-weight="700" text-anchor="middle">F</text>
</svg>