<svg xmlns="http://www.w3.org/2000/svg" viewBox="0 0 760 560" font-family="ui-sans-serif, system-ui, sans-serif">
<rect x="0" y="0" width="760" height="560" fill="#0f172a"/>
<line x1="60" y1="470" x2="700" y2="470" stroke="#1e293b" stroke-width="1"/>
<line x1="60" y1="422" x2="700" y2="422" stroke="#1e293b" stroke-width="1"/>
<line x1="60" y1="374" x2="700" y2="374" stroke="#1e293b" stroke-width="1"/>
<line x1="60" y1="326" x2="700" y2="326" stroke="#1e293b" stroke-width="1"/>
<line x1="60" y1="278" x2="700" y2="278" stroke="#1e293b" stroke-width="1"/>
<line x1="60" y1="230" x2="700" y2="230" stroke="#1e293b" stroke-width="1"/>
<line x1="60" y1="182" x2="700" y2="182" stroke="#1e293b" stroke-width="1"/>
<line x1="60" y1="134" x2="700" y2="134" stroke="#1e293b" stroke-width="1"/>
<line x1="60" y1="86" x2="700" y2="86" stroke="#1e293b" stroke-width="1"/>
<text x="66" y="478" fill="#475569" font-size="12">octave 0</text>
<text x="66" y="286" fill="#475569" font-size="12">octave 4</text>
<text x="66" y="94" fill="#475569" font-size="12">octave 8</text>
<line x1="380.0" y1="470.0" x2="442.0" y2="422.0" stroke="#64748b" stroke-width="2"/>
<line x1="380.0" y1="470.0" x2="318.0" y2="422.0" stroke="#64748b" stroke-width="2"/>
<line x1="318.0" y1="422.0" x2="380.0" y2="374.0" stroke="#64748b" stroke-width="2"/>
<line x1="318.0" y1="422.0" x2="256.0" y2="374.0" stroke="#64748b" stroke-width="2"/>
<line x1="256.0" y1="374.0" x2="318.0" y2="326.0" stroke="#64748b" stroke-width="2"/>
<line x1="256.0" y1="374.0" x2="194.0" y2="326.0" stroke="#64748b" stroke-width="2"/>
<line x1="194.0" y1="326.0" x2="256.0" y2="278.0" stroke="#64748b" stroke-width="2"/>
<line x1="194.0" y1="326.0" x2="132.0" y2="278.0" stroke="#64748b" stroke-width="2"/>
<line x1="132.0" y1="278.0" x2="194.0" y2="230.0" stroke="#64748b" stroke-width="2"/>
<line x1="442.0" y1="422.0" x2="504.0" y2="374.0" stroke="#64748b" stroke-width="2"/>
<line x1="442.0" y1="422.0" x2="380.0" y2="374.0" stroke="#64748b" stroke-width="2"/>
<line x1="380.0" y1="374.0" x2="442.0" y2="326.0" stroke="#64748b" stroke-width="2"/>
<line x1="380.0" y1="374.0" x2="318.0" y2="326.0" stroke="#64748b" stroke-width="2"/>
<line x1="318.0" y1="326.0" x2="380.0" y2="278.0" stroke="#64748b" stroke-width="2"/>
<line x1="318.0" y1="326.0" x2="256.0" y2="278.0" stroke="#64748b" stroke-width="2"/>
<line x1="256.0" y1="278.0" x2="318.0" y2="230.0" stroke="#64748b" stroke-width="2"/>
<line x1="256.0" y1="278.0" x2="194.0" y2="230.0" stroke="#64748b" stroke-width="2"/>
<line x1="194.0" y1="230.0" x2="256.0" y2="182.0" stroke="#64748b" stroke-width="2"/>
<line x1="504.0" y1="374.0" x2="566.0" y2="326.0" stroke="#64748b" stroke-width="2"/>
<line x1="504.0" y1="374.0" x2="442.0" y2="326.0" stroke="#64748b" stroke-width="2"/>
<line x1="442.0" y1="326.0" x2="504.0" y2="278.0" stroke="#64748b" stroke-width="2"/>
<line x1="442.0" y1="326.0" x2="380.0" y2="278.0" stroke="#64748b" stroke-width="2"/>
<line x1="380.0" y1="278.0" x2="442.0" y2="230.0" stroke="#64748b" stroke-width="2"/>
<line x1="380.0" y1="278.0" x2="318.0" y2="230.0" stroke="#64748b" stroke-width="2"/>
<line x1="318.0" y1="230.0" x2="380.0" y2="182.0" stroke="#64748b" stroke-width="2"/>
<line x1="318.0" y1="230.0" x2="256.0" y2="182.0" stroke="#64748b" stroke-width="2"/>
<line x1="256.0" y1="182.0" x2="318.0" y2="134.0" stroke="#64748b" stroke-width="2"/>
<line x1="566.0" y1="326.0" x2="628.0" y2="278.0" stroke="#64748b" stroke-width="2"/>
<line x1="566.0" y1="326.0" x2="504.0" y2="278.0" stroke="#64748b" stroke-width="2"/>
<line x1="504.0" y1="278.0" x2="566.0" y2="230.0" stroke="#64748b" stroke-width="2"/>
<line x1="504.0" y1="278.0" x2="442.0" y2="230.0" stroke="#64748b" stroke-width="2"/>
<line x1="442.0" y1="230.0" x2="504.0" y2="182.0" stroke="#64748b" stroke-width="2"/>
<line x1="442.0" y1="230.0" x2="380.0" y2="182.0" stroke="#64748b" stroke-width="2"/>
<line x1="380.0" y1="182.0" x2="442.0" y2="134.0" stroke="#64748b" stroke-width="2"/>
<line x1="380.0" y1="182.0" x2="318.0" y2="134.0" stroke="#64748b" stroke-width="2"/>
<line x1="318.0" y1="134.0" x2="380.0" y2="86.0" stroke="#64748b" stroke-width="2"/>
<line x1="628.0" y1="278.0" x2="566.0" y2="230.0" stroke="#64748b" stroke-width="2"/>
<line x1="566.0" y1="230.0" x2="504.0" y2="182.0" stroke="#64748b" stroke-width="2"/>
<line x1="504.0" y1="182.0" x2="442.0" y2="134.0" stroke="#64748b" stroke-width="2"/>
<line x1="442.0" y1="134.0" x2="380.0" y2="86.0" stroke="#64748b" stroke-width="2"/>
<circle cx="380.0" cy="470.0" r="9" fill="#fb7185" stroke="#0f172a" stroke-width="1.5"/>
<circle cx="318.0" cy="422.0" r="9" fill="#38bdf8" stroke="#0f172a" stroke-width="1.5"/>
<circle cx="256.0" cy="374.0" r="9" fill="#fb7185" stroke="#0f172a" stroke-width="1.5"/>
<circle cx="194.0" cy="326.0" r="9" fill="#38bdf8" stroke="#0f172a" stroke-width="1.5"/>
<circle cx="132.0" cy="278.0" r="9" fill="#fb7185" stroke="#0f172a" stroke-width="1.5"/>
<circle cx="442.0" cy="422.0" r="9" fill="#38bdf8" stroke="#0f172a" stroke-width="1.5"/>
<circle cx="380.0" cy="374.0" r="9" fill="#fb7185" stroke="#0f172a" stroke-width="1.5"/>
<circle cx="318.0" cy="326.0" r="9" fill="#38bdf8" stroke="#0f172a" stroke-width="1.5"/>
<circle cx="256.0" cy="278.0" r="9" fill="#fb7185" stroke="#0f172a" stroke-width="1.5"/>
<circle cx="194.0" cy="230.0" r="9" fill="#38bdf8" stroke="#0f172a" stroke-width="1.5"/>
<circle cx="504.0" cy="374.0" r="9" fill="#fb7185" stroke="#0f172a" stroke-width="1.5"/>
<circle cx="442.0" cy="326.0" r="9" fill="#38bdf8" stroke="#0f172a" stroke-width="1.5"/>
<circle cx="380.0" cy="278.0" r="9" fill="#fb7185" stroke="#0f172a" stroke-width="1.5"/>
<circle cx="318.0" cy="230.0" r="9" fill="#38bdf8" stroke="#0f172a" stroke-width="1.5"/>
<circle cx="256.0" cy="182.0" r="9" fill="#fb7185" stroke="#0f172a" stroke-width="1.5"/>
<circle cx="566.0" cy="326.0" r="9" fill="#38bdf8" stroke="#0f172a" stroke-width="1.5"/>
<circle cx="504.0" cy="278.0" r="9" fill="#fb7185" stroke="#0f172a" stroke-width="1.5"/>
<circle cx="442.0" cy="230.0" r="9" fill="#38bdf8" stroke="#0f172a" stroke-width="1.5"/>
<circle cx="380.0" cy="182.0" r="9" fill="#fb7185" stroke="#0f172a" stroke-width="1.5"/>
<circle cx="318.0" cy="134.0" r="9" fill="#38bdf8" stroke="#0f172a" stroke-width="1.5"/>
<circle cx="628.0" cy="278.0" r="9" fill="#fb7185" stroke="#0f172a" stroke-width="1.5"/>
<circle cx="566.0" cy="230.0" r="9" fill="#38bdf8" stroke="#0f172a" stroke-width="1.5"/>
<circle cx="504.0" cy="182.0" r="9" fill="#fb7185" stroke="#0f172a" stroke-width="1.5"/>
<circle cx="442.0" cy="134.0" r="9" fill="#38bdf8" stroke="#0f172a" stroke-width="1.5"/>
<circle cx="380.0" cy="86.0" r="9" fill="#fb7185" stroke="#0f172a" stroke-width="1.5"/>
<defs><marker id="a1" markerWidth="9" markerHeight="9" refX="7" refY="4.5" orient="auto"><path d="M0,0 L9,4.5 L0,9 z" fill="#fbbf24"/></marker></defs>
<line x1="380" y1="470" x2="442" y2="422" stroke="#fbbf24" stroke-width="3.5" marker-end="url(#a1)"/>
<line x1="380" y1="470" x2="318" y2="422" stroke="#fbbf24" stroke-width="3.5" marker-end="url(#a1)"/>
<text x="450" y="440" fill="#fbbf24" font-size="15" font-weight="700">NE = (2,1)</text>
<text x="310" y="440" fill="#fbbf24" font-size="15" font-weight="700" text-anchor="end">NW = (3,1)</text>
<circle cx="90" cy="490" r="8" fill="#fb7185"/><text x="106" y="495" fill="#cbd5e1" font-size="13">even octave</text>
<circle cx="90" cy="516" r="8" fill="#38bdf8"/><text x="106" y="521" fill="#cbd5e1" font-size="13">odd octave</text>
<text x="690" y="508" fill="#64748b" font-size="13" text-anchor="end">a square grid, stood on its corner</text>
</svg>