<svg xmlns="http://www.w3.org/2000/svg" viewBox="0 0 760 420" font-family="ui-sans-serif, system-ui, sans-serif">
<defs><linearGradient id="w" x1="0" y1="0" x2="0" y2="1"><stop offset="0" stop-color="#4a3320"/><stop offset="1" stop-color="#33230f"/></linearGradient>
  <marker id="ah" markerWidth="9" markerHeight="9" refX="7" refY="4.5" orient="auto"><path d="M0,0 L9,4.5 L0,9 z" fill="#fb7185"/></marker></defs>
<rect x="0" y="0" width="760" height="420" fill="#0f172a"/>
<rect x="110" y="38.099999999999994" width="540" height="353.8" rx="10" fill="url(#w)"/>
<line x1="110.0" y1="29.4" x2="110.0" y2="400.6" stroke="#e8dcc8" stroke-width="4" opacity="0.85"/>
<line x1="191.9" y1="29.4" x2="191.9" y2="400.6" stroke="#b8b8b8" stroke-width="1.6" opacity="0.85"/>
<line x1="269.2" y1="29.4" x2="269.2" y2="400.6" stroke="#b8b8b8" stroke-width="1.6" opacity="0.85"/>
<line x1="342.2" y1="29.4" x2="342.2" y2="400.6" stroke="#b8b8b8" stroke-width="1.6" opacity="0.85"/>
<circle cx="305.7" cy="215.0" r="6" fill="#f5f5dc" opacity="0.9"/>
<line x1="411.1" y1="29.4" x2="411.1" y2="400.6" stroke="#b8b8b8" stroke-width="1.6" opacity="0.85"/>
<line x1="476.1" y1="29.4" x2="476.1" y2="400.6" stroke="#b8b8b8" stroke-width="1.6" opacity="0.85"/>
<circle cx="443.6" cy="215.0" r="6" fill="#f5f5dc" opacity="0.9"/>
<line x1="537.4" y1="29.4" x2="537.4" y2="400.6" stroke="#b8b8b8" stroke-width="1.6" opacity="0.85"/>
<line x1="595.3" y1="29.4" x2="595.3" y2="400.6" stroke="#b8b8b8" stroke-width="1.6" opacity="0.85"/>
<circle cx="566.4" cy="215.0" r="6" fill="#f5f5dc" opacity="0.9"/>
<line x1="650.0" y1="29.4" x2="650.0" y2="400.6" stroke="#b8b8b8" stroke-width="1.6" opacity="0.85"/>
<line x1="78" y1="360" x2="650" y2="360" stroke="#cd7f32" stroke-width="2.60"/>
<line x1="78" y1="302" x2="650" y2="302" stroke="#cd7f32" stroke-width="2.30"/>
<line x1="78" y1="244" x2="650" y2="244" stroke="#cd7f32" stroke-width="2.00"/>
<line x1="78" y1="186" x2="650" y2="186" stroke="#cd7f32" stroke-width="1.70"/>
<line x1="78" y1="128" x2="650" y2="128" stroke="#c0c0c0" stroke-width="1.40"/>
<line x1="78" y1="70" x2="650" y2="70" stroke="#c0c0c0" stroke-width="1.10"/>
<line x1="392.3" y1="288.0" x2="486.6" y2="204.0" stroke="#fb7185" stroke-width="3.5" marker-end="url(#ah)"/>
<line x1="360.0" y1="289.2" x2="172.3" y2="144.5" stroke="#fb7185" stroke-width="3.5" marker-end="url(#ah)"/>
<circle cx="506.74068200541615" cy="186" r="18" fill="#fb7185"/><text x="506.74068200541615" y="192" fill="#fff" font-size="17" font-weight="700" text-anchor="middle">F</text>
<circle cx="150.9522134734143" cy="128" r="18" fill="#fb7185"/><text x="150.9522134734143" y="134" fill="#fff" font-size="17" font-weight="700" text-anchor="middle">F</text>
<circle cx="376.6170301203022" cy="302" r="23" fill="none" stroke="#fff" stroke-width="2"/><circle cx="376.6170301203022" cy="302" r="18" fill="#fb7185"/><text x="376.6170301203022" y="308" fill="#fff" font-size="17" font-weight="700" text-anchor="middle">F</text>
<text x="520.7406820054161" y="168" fill="#fb7185" font-size="17" font-weight="700">NE</text>
<text x="520.7406820054161" y="188" fill="#cbd5e1" font-size="13">2 strings up, +2</text>
<text x="146.9522134734143" y="102" fill="#fb7185" font-size="17" font-weight="700" text-anchor="middle">NW</text>
<text x="146.9522134734143" y="120" fill="#cbd5e1" font-size="13" text-anchor="middle">3 strings up, −3</text>
<text x="380" y="404" fill="#64748b" font-size="14" text-anchor="middle">Each shape lands on the same note, one octave higher.</text>
</svg>